<svg width="222" height="229" viewBox="0 0 222 229" fill="none" xmlns="http://www.w3.org/2000/svg">
<path d="M205.466 53.5186C191.203 31.5167 169.967 14.4163 145.106 5.60779C118.984 -3.64097 88.812 -1.09058 64.3734 11.662C16.4807 36.6212 -14.5325 110.429 8.51186 160.716C16.999 179.165 31.1655 193.935 46.0864 207.396C61.0525 220.902 84.0431 238.305 103.655 222.846C122.195 208.203 107.005 182.075 105.615 163.486C103.825 139.149 118.912 112.806 142.533 105.045C164.226 97.9729 187.985 103.375 209.767 96.0321C231.682 88.5537 216.791 66.6462 207.282 56.2012C206.781 55.2613 206.191 54.3221 205.466 53.5186Z" fill="#B2EBF2"/>
</svg>
