<svg width="206" height="309" viewBox="0 0 206 309" fill="none" xmlns="http://www.w3.org/2000/svg">
<path d="M202.269 305.232C195.267 311.476 180.085 308.076 172.251 308.076C149.235 308.076 126.149 308.076 103.133 308.076C70.2729 308.076 37.4125 308.076 4.55211 308.076C3.99751 304.677 3.30423 301.277 2.88828 297.878C-3.83632 242.096 2.61097 185.691 7.74108 130.118C12.0393 83.5644 14.327 36.9415 58.4875 9.74473C78.3147 -2.46605 103.757 -3.50674 124 8.35714C133.914 14.185 140.985 22.0943 147.779 31.2523C153.256 38.6759 156.722 47.0015 160.258 55.4658C166.566 70.7986 170.171 87.0334 173.846 103.129C177.728 120.474 181.125 137.958 184.452 155.442C192.98 199.914 200.051 244.455 205.527 289.413C205.943 293.09 206.429 296.837 205.32 300.375C204.626 302.457 203.586 303.983 202.269 305.232Z" fill="#80DEEA"/>
</svg>
