<svg width="121" height="122" viewBox="0 0 121 122" fill="none" xmlns="http://www.w3.org/2000/svg">
<path d="M91.1016 10.7019C87.106 7.97738 82.6196 5.81169 78.2034 3.92545C73.9975 2.10908 69.5112 1.34062 64.9547 0.572156C62.6414 0.152992 60.3282 -0.0566235 58.0149 0.0132371C53.5987 0.0830977 48.902 0.292713 44.4858 1.27076C35.2327 3.43644 28.0826 7.06915 20.5119 12.5881C17.007 15.173 14.203 18.666 11.3991 21.9495C9.78678 23.9056 8.38483 25.9315 7.26325 28.1671C3.2676 35.9915 0.393509 43.8158 0.0430144 52.758C-0.167283 58.4865 0.393527 63.8658 1.72541 69.1054C1.65531 70.0834 1.65533 71.0614 1.65533 72.1094C1.58523 83.8459 4.73968 94.2552 11.8197 103.686C17.1472 110.812 25.2086 115.772 33.4102 118.916C48.6917 124.714 66.567 121.85 80.727 114.375C87.5967 110.742 94.3262 106.271 100.144 101.171C107.715 94.4648 113.113 86.85 117.249 77.7681C120.964 69.5944 121.595 60.3728 120.543 51.5005C119.492 42.1392 114.445 33.3367 108.556 26.1411C103.579 20.3427 97.4105 15.0333 91.1016 10.7019Z" fill="#F8BBD0"/>
</svg>
