<svg width="306" height="304" viewBox="0 0 306 304" fill="none" xmlns="http://www.w3.org/2000/svg">
<path d="M85.4366 18.0983C53.9131 34.2658 28.0257 60.4767 12.7895 92.6929C-3.21065 126.544 -3.90313 167.45 9.90154 202.043C36.9113 269.83 131.89 321.6 202.635 297.491C228.594 288.602 250.382 271.577 270.516 253.358C290.715 235.085 317.248 206.557 299.146 178.082C281.996 151.16 244.798 168.011 219.62 167.341C186.662 166.423 153.311 142.544 146.105 109.733C139.561 79.6059 150.067 48.4064 143.172 18.1242C136.112 -12.3564 104.63 4.66851 89.2907 16.0235C87.9589 16.5684 86.6157 17.2342 85.4366 18.0983ZM256.653 175.472C256.587 175.526 256.521 175.581 256.455 175.636C256.07 175.843 255.684 176.051 255.353 176.324C254.143 176.881 253.351 176.867 256.653 175.472ZM238.291 183.98C238.225 184.035 238.225 184.035 238.291 183.98C237.499 183.967 236.564 184.183 235.684 184.466C235.52 184.267 236.346 183.919 238.291 183.98Z" fill="#CE93D8"/>
</svg>
