<svg width="97" height="175" viewBox="0 0 97 175" fill="none" xmlns="http://www.w3.org/2000/svg">
<path d="M129.961 15.319C124.261 11.419 117.861 8.31898 111.561 5.61898C105.561 3.01898 99.1614 1.919 92.6614 0.818997C89.3614 0.218997 86.0614 -0.0810521 82.7614 0.0189479C76.4614 0.118948 69.7614 0.418997 63.4614 1.819C50.2614 4.919 40.0614 10.1189 29.2614 18.0189C24.2614 21.7189 20.2614 26.719 16.2614 31.419C13.9614 34.219 11.9614 37.119 10.3614 40.319C4.66141 51.519 0.561362 62.719 0.0613624 75.519C-0.238638 83.7189 0.561387 91.419 2.46139 98.919C2.36139 100.319 2.36141 101.719 2.36141 103.219C2.26141 120.019 6.76141 134.919 16.8614 148.419C24.4614 158.619 35.9614 165.719 47.6614 170.219C69.4614 178.519 94.9614 174.419 115.161 163.719C124.961 158.519 134.561 152.119 142.861 144.819C153.661 135.219 161.361 124.319 167.261 111.319C172.561 99.619 173.461 86.419 171.961 73.719C170.461 60.319 163.261 47.719 154.861 37.419C147.761 29.119 138.961 21.519 129.961 15.319Z" fill="#B2EBF2"/>
</svg>
